<svg xmlns="http://www.w3.org/2000/svg" xmlns:xlink="http://www.w3.org/1999/xlink"><symbol id="icon_arrow_breadcrumbs" viewBox="0 0 5 9">
<path d="M1 1L4 4.5L1 8" stroke-linecap="round" stroke-linejoin="round"/>
</symbol><symbol id="icon_cancel_filter_small" viewBox="0 0 8 8">
<path d="M1 1L4 4M7 7L4 4M4 4L7 1.00002M4 4L1 6.99998" stroke-linecap="round"/>
</symbol><symbol id="icon_cart" viewBox="0 0 28 22">
<path d="M19 18V13M14 18V13M9 18V13M3 10L5 21H23L25 10M3 10H1V6H6M3 10H25M25 10H27V6H22M6 6L11 1M6 6H22M22 6L17 1" stroke-width="2" stroke-linecap="round" stroke-linejoin="round"/>
</symbol><symbol id="icon_cheaper" viewBox="0 0 16 12">
<path d="M1 4.75H15M2.27273 1H13.7273C14.4302 1 15 1.55964 15 2.25V9.75C15 10.4404 14.4302 11 13.7273 11H2.27273C1.56982 11 1 10.4404 1 9.75V2.25C1 1.55964 1.56982 1 2.27273 1Z" stroke-linecap="round" stroke-linejoin="round"/>
</symbol><symbol id="icon_check" viewBox="0 0 11 8">
<path d="M10 1L3.8125 7L1 4.27273" stroke-width="1.5" stroke-linecap="round" stroke-linejoin="round"/>
</symbol><symbol id="icon_check_checkbox" viewBox="0 0 14 10">
<path d="M13 1L4.75 9L1 5.36364" stroke-width="2" stroke-linecap="round" stroke-linejoin="round"/>
</symbol><symbol id="icon_chevron_down" viewBox="0 0 10 6">
<path d="M9 1L5 5L1 1" stroke-linecap="round" stroke-linejoin="round"/>
</symbol><symbol id="icon_chevron_right_small" viewBox="0 0 6 10">
<path d="M1 1L5 5L1 9" stroke-linecap="round" stroke-linejoin="round"/>
</symbol><symbol id="icon_clock" viewBox="0 0 13 13">
<path d="M6.5 3.2V6.5L8.7 7.6M12 6.5C12 9.53757 9.53757 12 6.5 12C3.46243 12 1 9.53757 1 6.5C1 3.46243 3.46243 1 6.5 1C9.53757 1 12 3.46243 12 6.5Z" stroke-linecap="round" stroke-linejoin="round"/>
</symbol><symbol id="icon_comment" viewBox="0 0 12 11">
<path fill-rule="evenodd" clip-rule="evenodd" d="M6.00004 0C2.71926 0 0 2.17191 0 4.87999C0 6.17968 0.650193 7.43005 1.77233 8.34018L1.15246 10.0103C1.03105 10.2863 1.09994 10.6167 1.33585 10.8122C1.47395 10.9298 1.64987 11 1.83106 11C1.96012 11 2.08484 10.9638 2.20349 10.8976L2.20448 10.897L4.50778 9.58926C4.97854 9.70778 5.49744 9.75998 6.00004 9.75998C9.28082 9.75998 12.0001 7.58807 12.0001 4.87999C12.0001 2.17191 9.28082 0 6.00004 0ZM0.863777 4.87999C0.863777 2.68635 3.13826 0.842939 6.00004 0.842939C8.86181 0.842939 11.1363 2.68635 11.1363 4.87999C11.1363 7.07362 8.86181 8.91704 6.00004 8.91704C5.52586 8.91704 5.05096 8.86239 4.60362 8.7669L4.5128 8.75213C4.40421 8.73159 4.30334 8.75466 4.21813 8.78792L4.20819 8.7918L2.07176 10.0039L2.68195 8.35762L2.6823 8.35672C2.74613 8.18935 2.68693 7.98795 2.54089 7.87864L2.49861 7.83738L2.4907 7.83152C1.45058 7.06009 0.863777 5.98519 0.863777 4.87999Z"/>
</symbol><symbol id="icon_compare" viewBox="0 0 26 22">
<path d="M16 17V10M11 17V6M6 17V6M21 17V6M1 1V21H25" stroke-width="2" stroke-linecap="round" stroke-linejoin="round"/>
</symbol><symbol id="icon_cross" viewBox="0 0 365.71733 365"><g><path d="m356.339844 296.347656-286.613282-286.613281c-12.5-12.5-32.765624-12.5-45.246093 0l-15.105469 15.082031c-12.5 12.503906-12.5 32.769532 0 45.25l286.613281 286.613282c12.503907 12.5 32.769531 12.5 45.25 0l15.082031-15.082032c12.523438-12.480468 12.523438-32.75.019532-45.25zm0 0"/><path d="m295.988281 9.734375-286.613281 286.613281c-12.5 12.5-12.5 32.769532 0 45.25l15.082031 15.082032c12.503907 12.5 32.769531 12.5 45.25 0l286.632813-286.59375c12.503906-12.5 12.503906-32.765626 0-45.246094l-15.082032-15.082032c-12.5-12.523437-32.765624-12.523437-45.269531-.023437zm0 0"/></g></symbol><symbol id="icon_dropdown_big" viewBox="0 0 12 7">
<path d="M1 1L6 6L11 1" stroke-width="2" stroke-linecap="round" stroke-linejoin="round"/>
</symbol><symbol id="icon_dropdown_small" viewBox="0 0 10 6">
<path d="M1 1L5 5L9 1" stroke-linecap="round" stroke-linejoin="round"/>
</symbol><symbol id="icon_edit_medium" viewBox="0 0 16 16">
<path fill-rule="evenodd" clip-rule="evenodd" d="M13.1938 1.46598C13.0178 1.46598 12.8435 1.50064 12.6809 1.56799C12.5183 1.63535 12.3706 1.73407 12.2461 1.85852L2.48843 11.6162L1.77767 14.2223L4.38378 13.5116L14.1415 3.75387C14.2659 3.62942 14.3647 3.48167 14.432 3.31907C14.4994 3.15647 14.534 2.98219 14.534 2.80619C14.534 2.63019 14.4994 2.45591 14.432 2.29331C14.3647 2.13071 14.2659 1.98297 14.1415 1.85852C14.017 1.73407 13.8693 1.63535 13.7067 1.56799C13.5441 1.50064 13.3698 1.46598 13.1938 1.46598ZM12.1199 0.213609C12.4604 0.0725841 12.8253 0 13.1938 0C13.5623 0 13.9272 0.0725842 14.2677 0.213609C14.6082 0.354633 14.9175 0.561336 15.1781 0.821915C15.4387 1.08249 15.6454 1.39185 15.7864 1.73231C15.9274 2.07277 16 2.43768 16 2.80619C16 3.17471 15.9274 3.53961 15.7864 3.88008C15.6454 4.22054 15.4387 4.52989 15.1781 4.79047L5.28274 14.6858C5.19254 14.776 5.08037 14.8411 4.9573 14.8747L0.925867 15.9742C0.672098 16.0434 0.4007 15.9713 0.214704 15.7853C0.0287084 15.5993 -0.0433651 15.3279 0.0258447 15.0741L1.12533 11.0427C1.15889 10.9196 1.22399 10.8075 1.31419 10.7173L11.2095 0.821915C11.4701 0.561336 11.7795 0.354633 12.1199 0.213609Z"/>
</symbol><symbol id="icon_eye" viewBox="0 0 16 9">
<path fill-rule="evenodd" clip-rule="evenodd" d="M3.81419 6.55876C2.75157 5.88232 1.87675 5.09154 1.31659 4.48474C1.82592 3.88651 2.6421 3.10749 3.67609 2.43937C4.9083 1.64317 6.41697 1.02532 8.05967 1.02532C9.70158 1.02532 11.1908 1.64262 12.3983 2.43707C13.4155 3.10639 14.2105 3.88706 14.7016 4.4845C14.1597 5.09074 13.306 5.8833 12.2602 6.56099C11.0243 7.36192 9.56304 7.97468 8.05967 7.97468C6.55534 7.97468 5.07481 7.36124 3.81419 6.55876ZM8.05967 0C6.16354 0 4.46513 0.711259 3.12615 1.57645C1.7884 2.44085 0.776605 3.47973 0.243709 4.19135L0 4.5168L0.259961 4.82923C0.8447 5.532 1.91802 6.56474 3.27006 7.42541C4.61933 8.28433 6.29058 9 8.05967 9C9.82973 9 11.4834 8.28365 12.8113 7.42319C14.1413 6.56132 15.1876 5.52707 15.7542 4.82265L16 4.51703L15.7705 4.19879C15.2559 3.48517 14.2711 2.44451 12.9553 1.57875C11.6376 0.711808 9.95661 0 8.05967 0ZM6.42721 4.11584C6.42721 3.16797 7.19032 2.39958 8.13167 2.39958C8.29643 2.39958 8.45165 2.29367 8.47992 2.13135L8.52303 1.88383C8.5681 1.62503 8.39436 1.37426 8.13167 1.37426C6.62795 1.37426 5.40894 2.60171 5.40894 4.11584C5.40894 5.62997 6.62795 6.85741 8.13167 6.85741C9.63539 6.85741 10.8544 5.62997 10.8544 4.11584C10.8544 4.04533 10.8517 3.97537 10.8465 3.90607C10.8294 3.67883 10.625 3.52034 10.3971 3.52034C10.0903 3.52034 9.83613 3.809 9.83613 4.11584C9.83613 5.0637 9.07301 5.83209 8.13167 5.83209C7.19032 5.83209 6.42721 5.0637 6.42721 4.11584Z"/>
</symbol><symbol id="icon_facebook" viewBox="0 0 8 20">
<path d="M1.72916 4.28164C1.72916 4.75205 1.72916 6.85168 1.72916 6.85168H0V9.99432H1.72916V19.3332H5.28122V9.99459H7.66481C7.66481 9.99459 7.88804 8.48771 7.99625 6.84009C7.68601 6.84009 5.29465 6.84009 5.29465 6.84009C5.29465 6.84009 5.29465 5.0118 5.29465 4.69133C5.29465 4.37018 5.68193 3.93818 6.06471 3.93818C6.44677 3.93818 7.25314 3.93818 8 3.93818C8 3.5103 8 2.0319 8 0.666504C7.00296 0.666504 5.86865 0.666504 5.36866 0.666504C1.64136 0.666287 1.72916 3.81206 1.72916 4.28164Z"/>
</symbol><symbol id="icon_favourite" viewBox="0 0 24 22">
<path d="M21.3036 2.76873C20.766 2.20818 20.1278 1.76351 19.4253 1.46012C18.7228 1.15674 17.9699 1.00059 17.2095 1.00059C16.4491 1.00059 15.6961 1.15674 14.9936 1.46012C14.2912 1.76351 13.6529 2.20818 13.1153 2.76873L11.9997 3.93153L10.8841 2.76873C9.79827 1.63698 8.32556 1.00117 6.78997 1.00117C5.25437 1.00117 3.78167 1.63698 2.69584 2.76873C1.61001 3.90048 1 5.43546 1 7.036C1 8.63653 1.61001 10.1715 2.69584 11.3033L11.9997 21.0006L21.3036 11.3033C21.8414 10.743 22.268 10.0777 22.5591 9.34554C22.8502 8.61334 23 7.82855 23 7.036C23 6.24344 22.8502 5.45865 22.5591 4.72646C22.268 3.99427 21.8414 3.32902 21.3036 2.76873Z" stroke-width="2" stroke-linecap="round" stroke-linejoin="round"/>
</symbol><symbol id="icon_gift" viewBox="0 0 16 16">
<path d="M13.6 8V15H2.4V8M8 15V4.5M8 4.5H4.85C4.38587 4.5 3.94075 4.31563 3.61256 3.98744C3.28437 3.65925 3.1 3.21413 3.1 2.75C3.1 2.28587 3.28437 1.84075 3.61256 1.51256C3.94075 1.18437 4.38587 1 4.85 1C7.3 1 8 4.5 8 4.5ZM8 4.5H11.15C11.6141 4.5 12.0592 4.31563 12.3874 3.98744C12.7156 3.65925 12.9 3.21413 12.9 2.75C12.9 2.28587 12.7156 1.84075 12.3874 1.51256C12.0592 1.18437 11.6141 1 11.15 1C8.7 1 8 4.5 8 4.5ZM1 4.5H15V8H1V4.5Z" stroke-linecap="round" stroke-linejoin="round"/>
</symbol><symbol id="icon_google_plus" viewBox="0 0 22 15">
<path d="M7.46597 2.66667C8.95556 2.66667 10.303 3.45729 11.0752 4.5467L12.9055 2.63993C11.8109 1.16753 9.70397 0 7.46597 0C3.54737 0 0.333374 3.28003 0.333374 7.33333C0.333374 11.3866 3.54737 14.6667 7.46597 14.6667C10.7144 14.6667 13.447 12.4134 14.2849 9.33333C14.4653 8.69323 14.5556 8.02656 14.5556 7.33333V6.66667H8.11048V9.33281H11.5264C10.8174 10.9063 9.25768 12 7.46597 12C4.97822 12 2.91142 9.9066 2.91142 7.33333C2.91142 4.76007 4.97822 2.66667 7.46597 2.66667Z"/>
<path d="M16.3334 6.41667H21.6667V8.25H16.3334V6.41667Z"/>
<path d="M19.8889 4.58333V10.0833H18.1112V4.58333H19.8889Z"/>
</symbol><symbol id="icon_instagram" viewBox="0 0 20 20">
<path fill-rule="evenodd" clip-rule="evenodd" d="M5.81785 0.666504H14.1819C17.0225 0.666504 19.3334 2.97745 19.3333 5.81784V14.1818C19.3333 17.0222 17.0225 19.3332 14.1819 19.3332H5.81785C2.97746 19.3332 0.666626 17.0223 0.666626 14.1818V5.81784C0.666626 2.97745 2.97746 0.666504 5.81785 0.666504ZM13.7333 9.99984C13.7333 12.0617 12.0618 13.7332 9.99996 13.7332C7.9381 13.7332 6.26663 12.0617 6.26663 9.99984C6.26663 7.93795 7.9381 6.2665 9.99996 6.2665C12.0618 6.2665 13.7333 7.93795 13.7333 9.99984ZM15.1333 6.2665C15.9065 6.2665 16.5333 5.63971 16.5333 4.8665C16.5333 4.0933 15.9065 3.4665 15.1333 3.4665C14.3601 3.4665 13.7333 4.0933 13.7333 4.8665C13.7333 5.63971 14.3601 6.2665 15.1333 6.2665Z"/>
</symbol><symbol id="icon_location" viewBox="0 0 18 22">
<path d="M17 9.18182C17 15.5455 9 21 9 21C9 21 1 15.5455 1 9.18182C1 7.01187 1.84285 4.93079 3.34315 3.3964C4.84344 1.86201 6.87827 1 9 1C11.1217 1 13.1566 1.86201 14.6569 3.3964C16.1571 4.93079 17 7.01187 17 9.18182Z" stroke-width="2" stroke-linecap="round" stroke-linejoin="round"/>
<path d="M9 11.9091C10.4728 11.9091 11.6667 10.688 11.6667 9.18182C11.6667 7.67559 10.4728 6.45455 9 6.45455C7.52724 6.45455 6.33333 7.67559 6.33333 9.18182C6.33333 10.688 7.52724 11.9091 9 11.9091Z" stroke-width="2" stroke-linecap="round" stroke-linejoin="round"/>
</symbol><symbol id="icon_location_filled" viewBox="0 0 10 12">
<path fill-rule="evenodd" clip-rule="evenodd" d="M5 12C5 12 10 8.72727 10 4.90909C10 3.60712 9.47322 2.35847 8.53553 1.43784C7.59785 0.517206 6.32608 0 5 0C3.67392 0 2.40215 0.517206 1.46447 1.43784C0.526784 2.35847 1.97602e-08 3.60712 0 4.90909C0 8.72727 5 12 5 12ZM5 6.54545C5.92047 6.54545 6.66667 5.81283 6.66667 4.90909C6.66667 4.00535 5.92047 3.27273 5 3.27273C4.07953 3.27273 3.33333 4.00535 3.33333 4.90909C3.33333 5.81283 4.07953 6.54545 5 6.54545Z"/>
</symbol><symbol id="icon_login" viewBox="0 0 22 22">
<path d="M14.3333 1H18.7778C19.3671 1 19.9324 1.23413 20.3491 1.65087C20.7659 2.06762 21 2.63285 21 3.22222V18.7778C21 19.3671 20.7659 19.9324 20.3491 20.3491C19.9324 20.7659 19.3671 21 18.7778 21H14.3333M8.77778 16.5556L14.3333 11M14.3333 11L8.77778 5.44444M14.3333 11H1" stroke-width="2" stroke-linecap="round" stroke-linejoin="round"/>
</symbol><symbol id="icon_mail" viewBox="0 0 26 20">
<path d="M25 3.25C25 2.0125 23.92 1 22.6 1H3.4C2.08 1 1 2.0125 1 3.25M25 3.25V16.75C25 17.9875 23.92 19 22.6 19H3.4C2.08 19 1 17.9875 1 16.75V3.25M25 3.25L13 11.125L1 3.25" stroke-width="2" stroke-linecap="round" stroke-linejoin="round"/>
</symbol><symbol id="icon_mail_filled" viewBox="0 0 12 8">
<path d="M10.8 0H1.2C0.753566 0 0.362037 0.205891 0.155396 0.509355L6 4.03596L11.8446 0.509355C11.638 0.205891 11.2464 0 10.8 0Z"/>
<path d="M12 1.23256L6 4.85293L0 1.23256V7C0 7.55 0.54 8 1.2 8H10.8C11.46 8 12 7.55 12 7V1.23256Z"/>
</symbol><symbol id="icon_menu" viewBox="0 0 26 18">
<path d="M1 9H25M1 1H15.4M1 17H25" stroke-width="1.5" stroke-linecap="round" stroke-linejoin="round"/>
</symbol><symbol id="icon_metro" viewBox="0 0 12 8">
<path d="M11.1744 6.88242L8.3712 0L6 4.02328L3.6384 0L0.825601 6.88242H0V7.92549H4.2432V6.88242H3.6096L4.224 5.1688L6 8L7.776 5.1688L8.3904 6.88242H7.7568V7.92549H12V6.88242H11.1744Z"/>
</symbol><symbol id="icon_minus" viewBox="0 0 10 2">
<path d="M1 1.00049L9 1.00049" stroke-width="2" stroke-linecap="round" stroke-linejoin="round"/>
</symbol><symbol id="icon_modifications" viewBox="0 0 10 6">
<path d="M9 1L5 5L1 1" stroke-width="2" stroke-linecap="round" stroke-linejoin="round"/>
</symbol><symbol id="icon_odnoklassniki" viewBox="0 0 14 22">
<path d="M5.90703 15.3599C4.18566 15.1874 2.63359 14.7801 1.30476 13.7816C1.13988 13.6573 0.969653 13.5376 0.81919 13.3988C0.237569 12.8622 0.178965 12.2475 0.639192 11.6141C1.03291 11.0721 1.69383 10.9271 2.3808 11.2383C2.51382 11.2986 2.64056 11.3739 2.76196 11.4548C5.23844 13.0896 8.64049 13.1347 11.1263 11.5283C11.3726 11.3469 11.6358 11.199 11.9409 11.1235C12.5342 10.9771 13.0874 11.1865 13.4058 11.6852C13.7695 12.2547 13.7648 12.8106 13.3167 13.2527C12.6293 13.9306 11.8025 14.421 10.884 14.7633C10.0154 15.0868 9.06397 15.2497 8.12236 15.3578C8.26445 15.5064 8.33142 15.5795 8.42026 15.6653C9.69885 16.8995 10.983 18.1286 12.2574 19.3666C12.6916 19.7884 12.7823 20.3114 12.5432 20.8021C12.2818 21.3383 11.6967 21.6911 11.123 21.6533C10.7595 21.6292 10.476 21.4554 10.2242 21.2116C9.25932 20.2788 8.27631 19.3632 7.33097 18.4128C7.05586 18.1364 6.92353 18.1887 6.68075 18.4286C5.71006 19.3887 4.72356 20.334 3.73125 21.274C3.28567 21.696 2.75545 21.772 2.23871 21.5309C1.68941 21.2751 1.33988 20.7364 1.36686 20.195C1.38546 19.8288 1.5729 19.5491 1.83453 19.2982C3.09986 18.0843 4.3617 16.8673 5.62401 15.6514C5.7075 15.5705 5.78541 15.4847 5.90703 15.3599Z"/>
<path d="M6.95563 11.1315C3.88473 11.1215 1.36662 8.6756 1.38453 5.72056C1.40221 2.7329 3.92194 0.325251 7.02307 0.333517C10.1305 0.341561 12.6246 2.78384 12.609 5.80256C12.5932 8.75156 10.0577 11.1418 6.95563 11.1315ZM9.74652 5.72771C9.74117 4.26046 8.52491 3.09239 7.00074 3.09105C5.46378 3.08949 4.23659 4.27879 4.24845 5.75943C4.25985 7.22109 5.48657 8.3809 7.01493 8.37554C8.53863 8.3704 9.75164 7.19473 9.74652 5.72771Z"/>
</symbol><symbol id="icon_package" viewBox="0 0 24 26">
<path d="M17.5 9.84307L6.5 3.63925M1.33 6.92644L12 12.9629L22.67 6.92644M12 25V12.951M23 17.7323V8.1696C22.9996 7.75036 22.8864 7.33861 22.6719 6.97564C22.4574 6.61268 22.149 6.31127 21.7778 6.10166L13.2222 1.32029C12.8506 1.11046 12.4291 1 12 1C11.5709 1 11.1494 1.11046 10.7778 1.32029L2.22222 6.10166C1.85099 6.31127 1.54264 6.61268 1.32812 6.97564C1.1136 7.33861 1.00044 7.75036 1 8.1696V17.7323C1.00044 18.1516 1.1136 18.5633 1.32812 18.9263C1.54264 19.2892 1.85099 19.5906 2.22222 19.8003L10.7778 24.5816C11.1494 24.7915 11.5709 24.9019 12 24.9019C12.4291 24.9019 12.8506 24.7915 13.2222 24.5816L21.7778 19.8003C22.149 19.5906 22.4574 19.2892 22.6719 18.9263C22.8864 18.5633 22.9996 18.1516 23 17.7323Z" stroke-width="2" stroke-linecap="round" stroke-linejoin="round"/>
</symbol><symbol id="icon_phone" viewBox="0 0 20 20">
<path d="M18.9994 14.4765V17.1862C19.0005 17.4377 18.9488 17.6867 18.8479 17.9172C18.7469 18.1477 18.5988 18.3546 18.413 18.5247C18.2273 18.6947 18.008 18.8242 17.7693 18.9048C17.5305 18.9854 17.2775 19.0153 17.0265 18.9927C14.2415 18.6907 11.5664 17.7409 9.21601 16.2197C7.02929 14.8329 5.17534 12.9827 3.7858 10.8003C2.25627 8.44389 1.30442 5.76107 1.00735 2.96915C0.98473 2.71938 1.01447 2.46764 1.09468 2.22996C1.17489 1.99229 1.30381 1.77389 1.47323 1.58866C1.64265 1.40343 1.84885 1.25544 2.07872 1.15411C2.30858 1.05278 2.55707 1.00032 2.80837 1.00009H5.52347C5.96269 0.995773 6.3885 1.151 6.72152 1.43683C7.05455 1.72267 7.27207 2.11961 7.33354 2.55366C7.44814 3.42084 7.66067 4.27229 7.96707 5.09177C8.08883 5.41507 8.11519 5.76642 8.043 6.1042C7.97082 6.44198 7.80313 6.75203 7.5598 6.99761L6.41041 8.14473C7.69877 10.406 9.57482 12.2784 11.8406 13.5642L12.99 12.4171C13.2361 12.1742 13.5467 12.0069 13.8852 11.9348C14.2236 11.8628 14.5757 11.8891 14.8996 12.0106C15.7207 12.3164 16.5739 12.5285 17.4428 12.6429C17.8824 12.7048 18.2839 12.9258 18.5709 13.2639C18.858 13.6019 19.0105 14.0335 18.9994 14.4765Z" stroke-width="2" stroke-linecap="round" stroke-linejoin="round"/>
</symbol><symbol id="icon_phone_filled" viewBox="0 0 12 12">
<path d="M11.9996 8.98431V10.7908C12.0003 10.9585 11.9659 11.1245 11.8986 11.2781C11.8313 11.4318 11.7325 11.5697 11.6087 11.6831C11.4849 11.7965 11.3387 11.8828 11.1795 11.9365C11.0203 11.9903 10.8517 12.0102 10.6843 11.9951C8.82768 11.7938 7.04426 11.1606 5.47734 10.1465C4.01953 9.22196 2.78356 7.98843 1.8572 6.53351C0.837516 4.96259 0.202945 3.17405 0.00489727 1.31277C-0.0101803 1.14625 0.00964865 0.978426 0.0631214 0.819976C0.116594 0.661526 0.202539 0.515923 0.315485 0.392439C0.42843 0.268955 0.565901 0.170295 0.719145 0.10274C0.87239 0.0351852 1.03805 0.000215834 1.20558 5.8381e-05H3.01565C3.30846 -0.00281781 3.59233 0.100667 3.81435 0.291223C4.03636 0.481779 4.18138 0.746405 4.22236 1.03578C4.29876 1.61389 4.44044 2.18152 4.64471 2.72785C4.72589 2.94338 4.74346 3.17761 4.69534 3.4028C4.64721 3.62799 4.53542 3.83469 4.3732 3.99841L3.60694 4.76315C4.46585 6.27069 5.71655 7.51891 7.22708 8.37612L7.99334 7.61138C8.15739 7.44948 8.3645 7.33791 8.59013 7.28988C8.81577 7.24185 9.05047 7.25939 9.26642 7.3404C9.81383 7.54427 10.3826 7.68567 10.9619 7.76192C11.2549 7.80318 11.5226 7.95052 11.714 8.1759C11.9053 8.40128 12.007 8.68899 11.9996 8.98431Z"/>
</symbol><symbol id="icon_plus" viewBox="0 0 10 10">
<path d="M5 1.00049V9.00049M1 5.00049H9" stroke-width="2" stroke-linecap="round" stroke-linejoin="round"/>
</symbol><symbol id="icon_search" viewBox="0 0 18 18">
<path d="M17 17L12.2802 12.2802M14.2222 7.61111C14.2222 11.2623 11.2623 14.2222 7.61111 14.2222C3.9599 14.2222 1 11.2623 1 7.61111C1 3.9599 3.9599 1 7.61111 1C11.2623 1 14.2222 3.9599 14.2222 7.61111Z" stroke-width="2" stroke-linecap="round" stroke-linejoin="round"/>
</symbol><symbol id="icon_share_small" viewBox="0 0 16 18">
<path d="M5.34778 10.208L10.66 13.392M10.6522 4.608L5.34778 7.792M15 3.4C15 4.72548 13.9553 5.8 12.6667 5.8C11.378 5.8 10.3333 4.72548 10.3333 3.4C10.3333 2.07452 11.378 1 12.6667 1C13.9553 1 15 2.07452 15 3.4ZM5.66667 9C5.66667 10.3255 4.622 11.4 3.33333 11.4C2.04467 11.4 1 10.3255 1 9C1 7.67452 2.04467 6.6 3.33333 6.6C4.622 6.6 5.66667 7.67452 5.66667 9ZM15 14.6C15 15.9255 13.9553 17 12.6667 17C11.378 17 10.3333 15.9255 10.3333 14.6C10.3333 13.2745 11.378 12.2 12.6667 12.2C13.9553 12.2 15 13.2745 15 14.6Z" stroke-linecap="round" stroke-linejoin="round"/>
</symbol><symbol id="icon_star" viewBox="0 0 14 13">
<path d="M7 0L9.16312 4.27934L14 4.96556L10.5 8.29656L11.3262 13L7 10.7793L2.67376 13L3.5 8.29656L0 4.96556L4.83688 4.27934L7 0Z"/>
</symbol><symbol id="icon_telegram" viewBox="0 0 19 15">
<path d="M0.663083 7.03261L4.96426 8.48131L6.62908 13.3129C6.73561 13.6224 7.15492 13.7368 7.43324 13.5314L9.83079 11.7676C10.0821 11.5828 10.4401 11.5736 10.7027 11.7457L15.027 14.5789C15.3248 14.7742 15.7466 14.6269 15.8212 14.3023L18.989 0.551374C19.0706 0.196723 18.6844 -0.0991368 18.3102 0.0314706L0.658043 6.1767C0.222425 6.32831 0.22622 6.88488 0.663083 7.03261ZM6.36078 7.71013L14.7669 3.03797C14.918 2.95425 15.0734 3.13859 14.9437 3.24719L8.00619 9.06669C7.76234 9.27153 7.60504 9.54566 7.56049 9.8432L7.32417 11.4236C7.29287 11.6346 6.9644 11.6556 6.89987 11.4514L5.99099 8.56941C5.88689 8.2407 6.03859 7.88959 6.36078 7.71013Z"/>
</symbol><symbol id="icon_twitter" viewBox="0 0 20 16">
<path d="M19.3333 1.89415C18.6391 2.21538 17.8995 2.42831 17.1283 2.53169C17.9216 2.032 18.5271 1.24677 18.8118 0.300308C18.0721 0.765538 17.2555 1.09415 16.3851 1.27754C15.6828 0.488616 14.6818 0 13.5898 0C11.4711 0 9.76546 1.81415 9.76546 4.03815C9.76546 4.35815 9.79113 4.66585 9.85413 4.95877C6.67263 4.79508 3.85746 3.18646 1.96629 0.736C1.63613 1.34031 1.44246 2.032 1.44246 2.77662C1.44246 4.17477 2.12496 5.41415 3.14229 6.13169C2.52746 6.11938 1.92429 5.93108 1.41329 5.63446C1.41329 5.64677 1.41329 5.66277 1.41329 5.67877C1.41329 7.64062 2.73979 9.27015 4.47929 9.64554C4.16779 9.73538 3.82829 9.77846 3.47596 9.77846C3.23096 9.77846 2.98363 9.76369 2.75146 9.70954C3.24729 11.3083 4.65429 12.4837 6.32729 12.5218C5.02529 13.5963 3.37213 14.2437 1.58246 14.2437C1.26863 14.2437 0.967626 14.2289 0.666626 14.1883C2.36179 15.3415 4.37079 16 6.53729 16C13.5793 16 17.4293 9.84615 17.4293 4.512C17.4293 4.33354 17.4235 4.16123 17.4153 3.99015C18.1748 3.42154 18.813 2.71138 19.3333 1.89415Z"/>
</symbol><symbol id="icon_vk" viewBox="0 0 20 12">
<path fill-rule="evenodd" clip-rule="evenodd" d="M16.732 7.44886C17.3512 8.05929 18.0047 8.63362 18.56 9.30562C18.8054 9.60424 19.0376 9.9124 19.2153 10.259C19.4671 10.7516 19.239 11.2937 18.8016 11.3231L16.0822 11.3219C15.3808 11.3807 14.8212 11.0956 14.3508 10.6113C13.9743 10.2241 13.6256 9.81195 13.2636 9.41164C13.1151 9.24802 12.9598 9.09407 12.7742 8.97237C12.403 8.72906 12.0807 8.80356 11.8686 9.19452C11.6525 9.59216 11.6035 10.0325 11.5823 10.4756C11.5532 11.1222 11.3596 11.2922 10.7164 11.3218C9.3417 11.3873 8.03707 11.1773 6.82511 10.4771C5.75661 9.85976 4.92803 8.98829 4.20684 8.0017C2.80267 6.0806 1.72735 3.96962 0.760899 1.7995C0.543358 1.31057 0.702451 1.04811 1.2367 1.03882C2.12386 1.02142 3.01088 1.02266 3.89908 1.03758C4.25964 1.04291 4.49834 1.25173 4.63756 1.59569C5.11754 2.78739 5.70484 3.92119 6.44204 4.97213C6.63836 5.25192 6.83854 5.53172 7.12361 5.72865C7.43897 5.9467 7.67908 5.87443 7.82744 5.5197C7.92159 5.29478 7.9628 5.05251 7.98402 4.81161C8.05431 3.98281 8.06357 3.15544 7.94029 2.32955C7.86461 1.81411 7.57709 1.48044 7.06774 1.3829C6.80782 1.33317 6.84652 1.23551 6.97237 1.0857C7.19095 0.827334 7.39653 0.666504 7.80635 0.666504H10.8797C11.3635 0.762928 11.471 0.982404 11.5372 1.474L11.5399 4.92116C11.5346 5.11147 11.634 5.6762 11.9735 5.80216C12.2452 5.89183 12.4243 5.67236 12.5873 5.4984C13.3231 4.70979 13.8483 3.77782 14.3175 2.81278C14.5257 2.38844 14.7047 1.94776 14.8782 1.50744C15.0068 1.1807 15.2085 1.01993 15.573 1.02706L18.5309 1.02972C18.6186 1.02972 18.7074 1.03102 18.7923 1.0457C19.2907 1.13147 19.4273 1.34797 19.2734 1.83944C19.0308 2.61052 18.5589 3.2531 18.0974 3.89865C17.6041 4.58786 17.0766 5.25347 16.5874 5.94677C16.138 6.57987 16.1737 6.89899 16.732 7.44886Z"/>
</symbol><symbol id="icon_youtube" viewBox="0 0 20 14">
<path d="M19.0107 2.47832C18.7822 1.46098 17.9702 0.710422 16.9927 0.598459C14.6779 0.333659 12.3351 0.332277 10.0029 0.333659C7.67046 0.332277 5.32717 0.333659 3.01241 0.598459C2.03548 0.710422 1.22407 1.46098 0.995545 2.47832C0.670287 3.92712 0.666626 5.50861 0.666626 7.00026C0.666626 8.49191 0.666626 10.0732 0.991884 11.5218C1.22003 12.5389 2.03163 13.2895 3.00914 13.4017C5.32371 13.6667 7.66679 13.668 9.99928 13.6667C12.3322 13.668 14.6747 13.6667 16.989 13.4017C17.966 13.2897 18.7782 12.5391 19.0067 11.5218C19.3321 10.073 19.3333 8.49171 19.3333 7.00026C19.3333 5.50861 19.336 3.92712 19.0107 2.47832ZM7.59107 9.96934C7.59107 7.85331 7.59107 5.75939 7.59107 3.64317C9.5694 4.70098 11.5346 5.75169 13.5255 6.81603C11.5408 7.87088 9.5746 8.91527 7.59107 9.96934Z"/>
</symbol></svg>